<mxfile host="app.diagrams.net" modified="2024-07-12T10:12:58.592Z" agent="Mozilla/5.0 (Windows NT 10.0; Win64; x64) AppleWebKit/537.36 (KHTML, like Gecko) Chrome/126.0.0.0 Safari/537.36" etag="txGo7AYhjaZl7C52QvYo" version="24.6.5" type="github">
  <diagram name="Page-1" id="7YZcLorAfcX39gXjKovJ">
    <mxGraphModel dx="2074" dy="686" grid="1" gridSize="10" guides="1" tooltips="1" connect="1" arrows="1" fold="1" page="1" pageScale="1" pageWidth="827" pageHeight="1169" math="0" shadow="0">
      <root>
        <mxCell id="0" />
        <mxCell id="1" parent="0" />
        <mxCell id="uB_PgY6Xo_SekGeZMfou-15" value="" style="rounded=0;whiteSpace=wrap;html=1;fillStyle=hatch;sketch=1;curveFitting=1;jiggle=2;shadow=0;" vertex="1" parent="1">
          <mxGeometry x="450" y="260" width="445" height="470" as="geometry" />
        </mxCell>
        <mxCell id="uB_PgY6Xo_SekGeZMfou-1" value="" style="whiteSpace=wrap;html=1;aspect=fixed;rounded=0;glass=0;textShadow=0;labelBorderColor=none;fillStyle=hatch;gradientColor=none;gradientDirection=radial;sketch=1;curveFitting=1;jiggle=2;shadow=1;" vertex="1" parent="1">
          <mxGeometry x="60" y="380" width="290" height="290" as="geometry" />
        </mxCell>
        <mxCell id="uB_PgY6Xo_SekGeZMfou-2" value="" style="whiteSpace=wrap;html=1;aspect=fixed;rounded=0;glass=0;textShadow=0;fillStyle=hatch;shadow=1;sketch=1;curveFitting=1;jiggle=2;" vertex="1" parent="1">
          <mxGeometry x="420" y="220" width="680" height="680" as="geometry" />
        </mxCell>
        <mxCell id="uB_PgY6Xo_SekGeZMfou-7" value="&lt;font size=&quot;1&quot; face=&quot;Comic Sans MS&quot;&gt;&lt;b style=&quot;font-size: 16px;&quot;&gt;Copartis&lt;/b&gt;&lt;/font&gt;" style="rounded=0;whiteSpace=wrap;html=1;fillStyle=auto;shadow=1;sketch=1;curveFitting=1;jiggle=2;" vertex="1" parent="1">
          <mxGeometry x="980" y="220" width="120" height="60" as="geometry" />
        </mxCell>
        <mxCell id="uB_PgY6Xo_SekGeZMfou-8" value="&lt;font style=&quot;font-size: 16px;&quot; face=&quot;Comic Sans MS&quot;&gt;&lt;b&gt;Nickel&lt;/b&gt;&lt;/font&gt;" style="rounded=0;whiteSpace=wrap;html=1;fillStyle=auto;sketch=1;curveFitting=1;jiggle=2;shadow=1;" vertex="1" parent="1">
          <mxGeometry x="280" y="380" width="70" height="30" as="geometry" />
        </mxCell>
        <mxCell id="uB_PgY6Xo_SekGeZMfou-9" value="&lt;font style=&quot;font-size: 14px;&quot; face=&quot;Comic Sans MS&quot;&gt;&lt;i&gt;&lt;b&gt;Nickel front&lt;/b&gt;&lt;/i&gt;&lt;/font&gt;" style="rounded=0;whiteSpace=wrap;html=1;shadow=1;sketch=1;curveFitting=1;jiggle=2;" vertex="1" parent="1">
          <mxGeometry x="140" y="460" width="120" height="60" as="geometry" />
        </mxCell>
        <mxCell id="uB_PgY6Xo_SekGeZMfou-10" value="&lt;b&gt;&lt;font face=&quot;Comic Sans MS&quot; style=&quot;font-size: 14px;&quot;&gt;&lt;i&gt;Nickel api&lt;/i&gt;&lt;/font&gt;&lt;/b&gt;" style="rounded=0;whiteSpace=wrap;html=1;sketch=1;curveFitting=1;jiggle=2;shadow=1;" vertex="1" parent="1">
          <mxGeometry x="140" y="530" width="120" height="60" as="geometry" />
        </mxCell>
        <mxCell id="uB_PgY6Xo_SekGeZMfou-11" value="&lt;font style=&quot;font-size: 14px;&quot; face=&quot;Comic Sans MS&quot;&gt;&lt;b&gt;&lt;i&gt;Gateway&lt;/i&gt;&lt;/b&gt;&lt;/font&gt;" style="rounded=0;whiteSpace=wrap;html=1;rotation=-90;sketch=1;curveFitting=1;jiggle=2;shadow=1;" vertex="1" parent="1">
          <mxGeometry x="311.25" y="445.75" width="402.5" height="85" as="geometry" />
        </mxCell>
        <mxCell id="uB_PgY6Xo_SekGeZMfou-13" value="&lt;font size=&quot;1&quot; face=&quot;Comic Sans MS&quot;&gt;&lt;b&gt;&lt;i style=&quot;font-size: 14px;&quot;&gt;Gold&lt;/i&gt;&lt;/b&gt;&lt;/font&gt;" style="rounded=0;whiteSpace=wrap;html=1;sketch=1;curveFitting=1;jiggle=2;shadow=1;" vertex="1" parent="1">
          <mxGeometry x="593.75" y="300" width="120" height="60" as="geometry" />
        </mxCell>
        <mxCell id="uB_PgY6Xo_SekGeZMfou-14" value="&lt;font size=&quot;1&quot; face=&quot;Comic Sans MS&quot;&gt;&lt;b&gt;&lt;i style=&quot;font-size: 14px;&quot;&gt;Generic-api&lt;/i&gt;&lt;/b&gt;&lt;/font&gt;" style="rounded=0;whiteSpace=wrap;html=1;sketch=1;curveFitting=1;jiggle=2;shadow=1;" vertex="1" parent="1">
          <mxGeometry x="600" y="385.75" width="120" height="60" as="geometry" />
        </mxCell>
        <mxCell id="uB_PgY6Xo_SekGeZMfou-16" value="&lt;b&gt;&lt;font face=&quot;Comic Sans MS&quot; style=&quot;font-size: 14px;&quot;&gt;copartis degital&lt;/font&gt;&lt;/b&gt;" style="rounded=0;whiteSpace=wrap;html=1;sketch=1;curveFitting=1;jiggle=2;shadow=1;fillStyle=auto;" vertex="1" parent="1">
          <mxGeometry x="780" y="260" width="115" height="40" as="geometry" />
        </mxCell>
        <mxCell id="uB_PgY6Xo_SekGeZMfou-17" value="&lt;b&gt;&lt;i&gt;&lt;font face=&quot;Comic Sans MS&quot; style=&quot;font-size: 14px;&quot;&gt;Service banking&lt;/font&gt;&lt;/i&gt;&lt;/b&gt;" style="rounded=0;whiteSpace=wrap;html=1;sketch=1;curveFitting=1;jiggle=2;shadow=1;" vertex="1" parent="1">
          <mxGeometry x="950" y="500" width="120" height="60" as="geometry" />
        </mxCell>
        <mxCell id="uB_PgY6Xo_SekGeZMfou-18" value="&lt;font face=&quot;Comic Sans MS&quot; style=&quot;font-size: 14px;&quot;&gt;&lt;i&gt;&lt;b&gt;Scheduler&lt;/b&gt;&lt;/i&gt;&lt;/font&gt;" style="rounded=0;whiteSpace=wrap;html=1;sketch=1;curveFitting=1;jiggle=2;shadow=1;" vertex="1" parent="1">
          <mxGeometry x="600" y="480" width="120" height="60" as="geometry" />
        </mxCell>
      </root>
    </mxGraphModel>
  </diagram>
</mxfile>
